HIERARCHY
ROOT Hips
{
	OFFSET 0.000000 0.000000 0.000000
	CHANNELS 6 Xposition Yposition Zposition Zrotation Yrotation Xrotation 
	JOINT LHipJoint
	{
		OFFSET 0.000000 0.000000 0.000000
		CHANNELS 3 Zrotation Yrotation Xrotation
		JOINT LeftUpLeg
		{
			OFFSET 1.363060 -1.794630 0.839290
			CHANNELS 3 Zrotation Yrotation Xrotation
			JOINT LeftLeg
			{
				OFFSET 2.448110 -6.726130 0.000000
				CHANNELS 3 Zrotation Yrotation Xrotation
				JOINT LeftFoot
				{
					OFFSET 2.562200 -7.039590 0.000000
					CHANNELS 3 Zrotation Yrotation Xrotation
					JOINT LeftToeBase
					{
						OFFSET 0.157640 -0.433110 2.322550
						CHANNELS 3 Zrotation Yrotation Xrotation
						End Site
						{
							OFFSET 0.000000 0.000000 0.000000
						}
					}
				}
			}
		}
	}
	JOINT RHipJoint
	{
		OFFSET 0.000000 0.000000 0.000000
		CHANNELS 3 Zrotation Yrotation Xrotation
		JOINT RightUpLeg
		{
			OFFSET -1.305520 -1.794630 0.839290
			CHANNELS 3 Zrotation Yrotation Xrotation
			JOINT RightLeg
			{
				OFFSET -2.542530 -6.985550 0.000000
				CHANNELS 3 Zrotation Yrotation Xrotation
				JOINT RightFoot
				{
					OFFSET -2.568260 -7.056230 0.000000
					CHANNELS 3 Zrotation Yrotation Xrotation
					JOINT RightToeBase
					{
						OFFSET -0.164730 -0.452590 2.363150
						CHANNELS 3 Zrotation Yrotation Xrotation
						End Site
						{
							OFFSET 0.000000 0.000000 0.000000
						}
					}
				}
			}
		}
	}
	JOINT LowerBack
	{
		OFFSET 0.000000 0.000000 0.000000
		CHANNELS 3 Zrotation Yrotation Xrotation
		JOINT Spine
		{
			OFFSET 0.028270 2.035590 -0.193380
			CHANNELS 3 Zrotation Yrotation Xrotation
			JOINT Spine1
			{
				OFFSET 0.056720 2.048850 -0.042750
				CHANNELS 3 Zrotation Yrotation Xrotation
				JOINT Neck
				{
					OFFSET 0.000000 0.000000 0.000000
					CHANNELS 3 Zrotation Yrotation Xrotation
					JOINT Neck1
					{
						OFFSET -0.054170 1.746240 0.172020
						CHANNELS 3 Zrotation Yrotation Xrotation
						JOINT Head
						{
							OFFSET 0.104070 1.761360 -0.123970
							CHANNELS 3 Zrotation Yrotation Xrotation
							End Site
							{
								OFFSET 0.000000 0.000000 0.000000
							}
						}
					}
				}
				JOINT LeftShoulder
				{
					OFFSET 0.000000 0.000000 0.000000
					CHANNELS 3 Zrotation Yrotation Xrotation
					JOINT LeftArm
					{
						OFFSET 3.362410 1.200890 -0.311210
						CHANNELS 3 Zrotation Yrotation Xrotation
						JOINT LeftForeArm
						{
							OFFSET 4.983000 -0.000000 -0.000000
							CHANNELS 3 Zrotation Yrotation Xrotation
							JOINT LeftHand
							{
								OFFSET 3.483560 -0.000000 -0.000000
								CHANNELS 3 Zrotation Yrotation Xrotation
								JOINT LeftFingerBase
								{
									OFFSET 0.000000 0.000000 0.000000
									CHANNELS 3 Zrotation Yrotation Xrotation
									JOINT LeftHandIndex1
									{
										OFFSET 0.715260 -0.000000 -0.000000
										CHANNELS 3 Zrotation Yrotation Xrotation
										End Site
										{
											OFFSET 0.000000 0.000000 0.000000
										}
									}
								}
								JOINT LThumb
								{
									OFFSET 0.000000 0.000000 0.000000
									CHANNELS 3 Zrotation Yrotation Xrotation
									End Site
									{
										OFFSET 0.000000 0.000000 0.000000
									}
								}
							}
						}
					}
				}
				JOINT RightShoulder
				{
					OFFSET 0.000000 0.000000 0.000000
					CHANNELS 3 Zrotation Yrotation Xrotation
					JOINT RightArm
					{
						OFFSET -3.136600 1.374050 -0.404650
						CHANNELS 3 Zrotation Yrotation Xrotation
						JOINT RightForeArm
						{
							OFFSET -5.241900 -0.000000 -0.000000
							CHANNELS 3 Zrotation Yrotation Xrotation
							JOINT RightHand
							{
								OFFSET -3.444170 -0.000000 -0.000000
								CHANNELS 3 Zrotation Yrotation Xrotation
								JOINT RightFingerBase
								{
									OFFSET 0.000000 0.000000 0.000000
									CHANNELS 3 Zrotation Yrotation Xrotation
									JOINT RightHandIndex1
									{
										OFFSET -0.622530 -0.000000 -0.000000
										CHANNELS 3 Zrotation Yrotation Xrotation
										End Site
										{
											OFFSET 0.000000 0.000000 0.000000
										}
									}
								}
								JOINT RThumb
								{
									OFFSET 0.000000 0.000000 0.000000
									CHANNELS 3 Zrotation Yrotation Xrotation
									End Site
									{
										OFFSET 0.000000 0.000000 0.000000
									}
								}
							}
						}
					}
				}
			}
		}
	}
}
MOTION
Frames: 9
Frame Time: 0.008333
10.379555 17.495322 19.865729 7.084691 12.444640 10.949532 0.392997 4.349824 5.381182 -16.459275 4.612968 17.076461 -3.537907 -1.268862 3.959204 0.394588 1.758056 18.200795 1.088101 -6.622921 -18.605278 -2.561036 1.110743 -5.080076 4.979584 8.326468 -42.532472 -0.728810 -14.364879 31.672086 2.011621 -12.244676 14.191576 -1.564076 7.890825 -22.383677 -8.437298 -8.046468 -4.037515 1.470698 -9.668798 -5.292548 5.781040 -6.113086 8.176946 -9.906431 -1.581047 -16.992646 6.611366 0.006247 8.889240 6.634369 -0.307520 9.968568 -1.419646 -7.546504 0.102556 -67.720973 -26.585738 42.751143 17.460656 -25.589186 -5.776477 0.649359 1.427466 -4.516241 14.826745 -24.359257 -6.248564 -7.125000 0.000000 0.000000 -9.471827 3.729295 8.961157 -0.032262 6.407255 0.481172 74.867167 -24.796530 17.816734 -9.319125 17.359539 -2.730909 2.859601 1.845120 -11.402886 -28.164113 -16.366212 10.237838 7.125000 0.000000 0.000000 -3.405789 -49.929863 0.421535
10.361914 17.496295 20.031858 6.766696 12.155166 10.810520 0.420339 4.456005 5.414539 -15.897429 5.160400 17.326956 -3.481690 -1.254701 3.949848 0.154332 2.942885 19.954136 0.963703 -6.248963 -17.509033 -2.575278 1.041850 -5.010671 5.444646 8.700643 -42.703911 -0.926365 -14.695657 32.703581 1.869560 -11.721875 14.159607 -1.491828 7.715675 -21.854030 -8.170217 -7.944078 -3.863132 1.486171 -9.592587 -5.319705 5.852053 -6.067256 7.947318 -9.902321 -1.526703 -17.057206 6.632394 0.102006 8.934309 6.648106 -0.270760 10.076303 -1.407797 -7.571513 0.060147 -67.898469 -26.012539 42.837711 17.522724 -25.693076 -5.806210 0.632354 1.417956 -4.665548 14.880673 -24.300598 -6.263891 -7.125000 0.000000 0.000000 -9.426482 3.790286 8.906272 0.015993 6.444638 0.472833 74.782761 -24.559611 16.997115 -8.946170 16.834771 -2.582068 2.850848 1.708886 -9.809059 -27.360380 -15.945419 9.653115 7.125000 0.000000 0.000000 -2.577166 -49.279188 0.273605
10.345368 17.497847 20.197343 6.452212 11.929743 10.809410 0.427460 4.551879 5.446323 -15.349968 5.602112 17.404726 -3.432153 -1.222660 3.936309 -0.029863 4.039079 21.518054 0.981602 -6.306087 -17.675300 -2.599839 0.976833 -4.949931 5.995527 8.849330 -42.970946 -1.110309 -14.991708 33.688683 1.692183 -10.994713 13.953780 -1.457397 7.629963 -21.595823 -7.893584 -7.903640 -3.862239 1.515636 -9.586424 -5.351301 5.950915 -6.048873 7.719240 -10.013428 -1.453796 -16.868672 6.678747 0.237700 8.860751 6.709040 -0.212644 9.977377 -1.410060 -7.571731 0.038603 -68.068124 -25.345724 43.118451 17.591044 -25.821684 -5.833925 0.579073 1.413833 -5.213331 15.153549 -24.243618 -6.392077 -7.125000 0.000000 0.000000 -9.233174 3.811927 8.714988 0.051142 6.467340 0.488003 74.570706 -24.410457 17.221770 -8.819710 16.656295 -2.547938 2.893206 1.697164 -9.457569 -27.571499 -16.082276 9.815044 7.125000 0.000000 0.000000 -2.804982 -49.464013 0.310156
10.329425 17.497347 20.360458 6.155765 11.716379 10.836498 0.433717 4.644023 5.475301 -14.839272 6.031017 17.474498 -3.383707 -1.186130 3.921638 -0.192923 5.095310 23.013592 0.991963 -6.338617 -17.770151 -2.623950 0.913010 -4.890450 6.561479 8.940583 -43.242166 -1.290665 -15.274224 34.653829 1.509455 -10.213401 13.662476 -1.439631 7.585617 -21.462273 -7.613968 -7.852911 -3.893436 1.539450 -9.562449 -5.381806 6.019535 -6.018719 7.490948 -10.115654 -1.395908 -16.643920 6.718369 0.345868 8.768176 6.763285 -0.165514 9.854849 -1.411553 -7.570993 0.020858 -68.249440 -24.679457 43.418987 17.670811 -25.960846 -5.867857 0.524011 1.411233 -5.741377 15.472550 -24.215838 -6.549922 -7.125000 0.000000 0.000000 -9.012621 3.794347 8.504116 0.073357 6.489460 0.503603 74.399274 -24.313690 17.576511 -8.775648 16.588809 -2.547188 2.933881 1.723343 -9.342135 -27.851769 -16.437782 10.141775 7.125000 0.000000 0.000000 -3.086136 -49.931554 0.377614
10.314424 17.493041 20.519365 5.891556 11.515830 10.895233 0.441268 4.730853 5.499406 -14.393261 6.451648 17.554210 -3.336297 -1.143984 3.905506 -0.325561 6.091566 24.411852 0.968495 -6.265479 -17.556652 -2.645783 0.850803 -4.832029 7.142631 8.959530 -43.507448 -1.466439 -15.537089 35.589331 1.322017 -9.362749 13.240661 -1.446754 7.603679 -21.516522 -7.330292 -7.774734 -3.958308 1.551028 -9.496230 -5.409705 6.029328 -5.963319 7.262048 -10.185453 -1.367904 -16.389273 6.742191 0.398428 8.657882 6.798709 -0.141347 9.718748 -1.409649 -7.572030 0.007056 -68.453030 -24.027439 43.727956 17.770468 -26.115661 -5.913356 0.470852 1.410635 -6.177190 15.844263 -24.240811 -6.745614 -7.125000 0.000000 0.000000 -8.763570 3.711160 8.277007 0.073953 6.512601 0.516657 74.319638 -24.299567 18.019485 -8.846225 16.673722 -2.590778 2.964266 1.800679 -9.479208 -28.113849 -17.111144 10.661882 7.125000 0.000000 0.000000 -3.314517 -50.793884 0.475047
10.298716 17.485364 20.674356 5.629513 11.337985 10.927896 0.446595 4.821812 5.518301 -13.943812 6.868595 17.645376 -3.286123 -1.089061 3.886073 -0.446937 7.156555 25.817450 0.827969 -5.784554 -16.166297 -2.650462 0.785956 -4.768664 7.679215 9.037074 -43.655021 -1.635432 -15.773352 36.456376 1.169211 -8.589663 12.653444 -1.323524 7.277188 -20.543090 -7.029219 -7.636109 -3.987330 1.543738 -9.347157 -5.427450 5.948217 -5.869995 7.093868 -10.094018 -1.371064 -16.341185 6.714129 0.372802 8.627729 6.756709 -0.150639 9.730477 -1.390443 -7.594351 -0.012719 -68.618772 -23.505700 44.138911 17.875221 -26.254679 -5.956898 0.443057 1.404081 -6.495148 15.990114 -24.280398 -6.829825 -7.125000 0.000000 0.000000 -8.665037 3.655408 8.190805 0.071958 6.543708 0.507137 74.462979 -24.181612 17.877337 -8.886261 16.693932 -2.609478 2.956833 1.829950 -9.154540 -27.831331 -17.580128 10.821205 7.125000 0.000000 0.000000 -2.946056 -51.316491 0.455222
10.283221 17.478360 20.829241 5.353623 11.179780 10.947649 0.428349 4.895658 5.535558 -13.480874 7.242156 17.526649 -3.202412 -0.896980 4.196655 -0.561710 8.199815 27.140738 0.654593 -5.158519 -14.364687 -2.640174 0.726925 -4.707165 8.216299 9.106612 -43.736764 -1.797066 -15.988211 37.270667 1.036171 -7.877154 12.023095 -1.160465 6.832295 -19.222035 -6.722165 -7.496273 -4.026100 1.536705 -9.194770 -5.435999 5.859863 -5.778975 7.002647 -9.969211 -1.383348 -16.398716 6.673797 0.330066 8.625646 6.697121 -0.166291 9.791956 -1.367243 -7.613457 -0.032880 -68.770366 -23.047758 44.561065 17.977721 -26.391059 -5.999351 0.418806 1.396363 -6.819731 16.091737 -24.332455 -6.895103 -7.125000 0.000000 0.000000 -8.596274 3.595147 8.133945 0.078367 6.569339 0.493507 74.630864 -23.958965 17.593715 -8.897204 16.671724 -2.615190 2.941757 1.849474 -8.738326 -27.427178 -17.997479 10.895006 7.125000 0.000000 0.000000 -2.443000 -51.755815 0.405277
10.269261 17.477388 20.987800 5.023557 11.071613 10.946100 0.324024 4.901033 5.552094 -12.970929 7.456849 16.608910 -2.995811 -0.203843 5.748222 -0.663436 9.090118 28.147734 0.479762 -4.412383 -12.244700 -2.591603 0.692451 -4.657801 8.801606 9.085190 -43.694045 -1.938158 -16.150471 37.958317 0.941241 -7.311151 11.403013 -0.983598 6.301694 -17.666102 -6.410774 -7.414758 -4.138708 1.550259 -9.116120 -5.420618 5.838878 -5.736028 7.136876 -9.886929 -1.397439 -16.637513 6.641404 0.304477 8.645494 6.652093 -0.170997 9.886272 -1.347048 -7.598374 -0.048277 -68.908270 -22.693572 44.919158 18.066474 -26.533976 -6.039761 0.381465 1.390467 -7.291716 16.262387 -24.416076 -7.005319 -7.125000 0.000000 0.000000 -8.482623 3.489447 8.040582 0.118990 6.566147 0.487934 74.658912 -23.451696 17.388044 -8.830816 16.557736 -2.598079 2.937345 1.882428 -8.458989 -27.133231 -18.433742 11.023284 7.125000 0.000000 0.000000 -2.055877 -52.236109 0.364320
10.255124 17.489047 21.147422 4.664898 10.897413 10.864409 0.158581 4.719728 5.509751 -12.617096 7.528173 14.507057 -2.472565 1.303670 9.598633 -0.604823 9.060938 28.562113 0.401443 -4.066667 -11.264362 -2.495509 0.718741 -4.604362 9.385108 9.080689 -43.476396 -2.054625 -16.245915 38.502406 0.885481 -6.900089 10.826315 -0.788954 5.638743 -15.747941 -6.102623 -7.341793 -4.180244 1.568652 -9.061277 -5.401537 5.826735 -5.691384 7.266162 -9.813825 -1.391260 -16.819008 6.634300 0.307542 8.613054 6.623908 -0.155410 9.914677 -1.335452 -7.562677 -0.056991 -69.027098 -22.312752 45.199140 18.099187 -26.623564 -6.056135 0.334459 1.391548 -7.715070 16.565114 -24.500371 -7.185343 -7.125000 0.000000 0.000000 -8.284271 3.351521 7.869458 0.154346 6.576554 0.495531 74.629340 -22.991134 17.633617 -8.852083 16.565850 -2.617899 2.956500 1.934383 -8.636945 -27.312986 -18.859539 11.357007 7.125000 0.000000 0.000000 -2.206800 -52.778825 0.426410
